<svg width="24" height="22" fill="none" xmlns="http://www.w3.org/2000/svg"><path d="M16.56 9.148L7.62 0 6.205 1.448l2.38 2.4353L3.44 9.1479c-.2809.2878-.4387.678-.4387 1.0847 0 .4067.1578.7968.4387 1.0846l5.5 5.6279c.2813.2874.6625.4489 1.06.4489.3975 0 .7787-.1615 1.06-.4489l5.5-5.6279c.2809-.2878.4387-.6779.4387-1.0846 0-.4068-.1578-.7969-.4387-1.0847zM5.205 10.2325L10 5.3312l4.795 4.9014h-9.59zM19 11.7674s-2 2.2154-2 3.5814c0 .5428.2107 1.0633.5858 1.4471.3751.3838.8838.5994 1.4142.5994.5304 0 1.0391-.2156 1.4142-.5994.3751-.3838.5858-.9043.5858-1.4471 0-1.366-2-3.5814-2-3.5814zM24 20.4651H0V22h24v-1.5349z" fill="#D22856"/></svg>