<svg width="13" height="12" fill="none" xmlns="http://www.w3.org/2000/svg"><path d="M6.4687 12a.7823.7823 0 01-.3188-.0633.756.756 0 01-.2617-.1867C1.9592 7.42 1.0366 6.44.8604 6.17.3071 5.495.0042 4.6606 0 3.8c.0044-.7257.223-1.4353.6303-2.0455.4073-.6102.9864-1.0959 1.6694-1.4002A4.0902 4.0902 0 014.4872.0364C5.233.1331 5.9346.4326 6.5102.9 7.2276.3195 8.1341.001 9.0706 0c1.0429.0026 2.0422.4042 2.7787 1.1165.7365.7124 1.1501 1.6774 1.1501 2.6835.0145.8772-.315 1.7272-.9226 2.38l-5.038 5.56a.7567.7567 0 01-.257.1846.7806.7806 0 01-.3132.0654V12zM2.0733 5.28c.2177.26 2.5605 2.84 4.3954 4.86L10.947 5.2c.3603-.382.5535-.8837.539-1.4 0-.618-.2544-1.2106-.7074-1.6476-.453-.437-1.0673-.6824-1.708-.6824a2.5947 2.5947 0 00-1.0966.2519 2.5026 2.5026 0 00-.873.6881.8162.8162 0 01-.2744.2038.8437.8437 0 01-.3372.0762.7575.7575 0 01-.3327-.0816.7286.7286 0 01-.2582-.2184 2.4309 2.4309 0 00-.8676-.682 2.521 2.521 0 00-1.0916-.238 2.4902 2.4902 0 00-1.2801.3702c-.3824.2365-.6882.572-.8826.9679a2.267 2.267 0 00-.2173 1.272c.0525.4352.2306.8475.514 1.1899v.01z" fill="#D22856"/></svg>